<?xml version="1.0" encoding="us-ascii" standalone="no"?><svg xmlns="http://www.w3.org/2000/svg" xmlns:xlink="http://www.w3.org/1999/xlink" contentStyleType="text/css" height="176px" preserveAspectRatio="none" style="width:612px;height:176px;background:#FFFFFF;" version="1.1" viewBox="0 0 612 176" width="612px" zoomAndPan="magnify"><defs/><g><!--cluster System--><g id="cluster_System"><rect fill="none" height="163" rx="2.5" ry="2.5" style="stroke:#181818;stroke-width:1.0;" width="487" x="119" y="7"/><text fill="#000000" font-family="sans-serif" font-size="14" font-weight="bold" lengthAdjust="spacing" textLength="50" x="337.5" y="23.5332">System</text></g><g id="elem_UC1"><ellipse cx="227.0109" cy="60.0022" fill="#F1F1F1" rx="73.0109" ry="17.0022" style="stroke:#181818;stroke-width:0.5;"/><text fill="#000000" font-family="sans-serif" font-size="14" lengthAdjust="spacing" textLength="96" x="176.0109" y="64.5188">CRUD Branche</text></g><g id="elem_UC2"><ellipse cx="515.481" cy="60.7962" fill="#F1F1F1" rx="74.481" ry="17.2962" style="stroke:#181818;stroke-width:0.5;"/><text fill="#000000" font-family="sans-serif" font-size="14" lengthAdjust="spacing" textLength="100" x="462.481" y="65.3128">CRUD Question</text></g><g id="elem_UC3"><ellipse cx="227.1309" cy="132.8262" fill="#F1F1F1" rx="92.1309" ry="20.8262" style="stroke:#181818;stroke-width:0.5;"/><text fill="#000000" font-family="sans-serif" font-size="14" lengthAdjust="spacing" textLength="143" x="155.6309" y="136.5547">&#201;valuer Les R&#233;ponses</text></g><!--entity fr--><g id="elem_fr"><ellipse cx="39" cy="66.5" fill="#F1F1F1" rx="8" ry="8" style="stroke:#181818;stroke-width:0.5;"/><path d="M39,74.5 L39,101.5 M26,82.5 L52,82.5 M39,101.5 L26,116.5 M39,101.5 L52,116.5 " fill="none" style="stroke:#181818;stroke-width:0.5;"/><text fill="#000000" font-family="sans-serif" font-size="14" lengthAdjust="spacing" textLength="66" x="6" y="132.5332">Formateur</text></g><!--link fr to UC1--><g id="link_fr_UC1"><path d="M72.4,90.56 C99.56,85.15 138.95,77.32 171.04,70.93 " fill="none" id="fr-UC1" style="stroke:#181818;stroke-width:1.0;"/></g><!--reverse link UC1 to UC2--><g id="link_UC1_UC2"><path d="M306.3,60.2709 C349.31,60.4209 397.75,60.59 440.98,60.74 " fill="none" id="UC1-backto-UC2" style="stroke:#181818;stroke-width:1.0;stroke-dasharray:7.0,7.0;"/><polygon fill="#181818" points="300.3,60.25,309.286,64.2814,305.3,60.2674,309.3139,56.2814,300.3,60.25" style="stroke:#181818;stroke-width:1.0;"/><text fill="#000000" font-family="sans-serif" font-size="13" lengthAdjust="spacing" textLength="60" x="350" y="57.4951">&#171;extends&#187;</text></g><!--link fr to UC3--><g id="link_fr_UC3"><path d="M72.4,103.27 C95.51,107.74 127.45,113.93 156.23,119.5 " fill="none" id="fr-UC3" style="stroke:#181818;stroke-width:1.0;"/></g><!--SRC=[POqz2i9058JxFSMGFW5D9o654IiR8pd0ahpyGB8hx-sA8Xx0etYEN4mJWWWMKttVpFHKEpWBxfhMeUgOIjTPetJfB2FOMnwq8yy1jA1cDN5jcfvmkecZ0NS5UA5I2o78ycA7BMjJjZGtYcprnu-UPFfOXFMlC3ulklV4E90W7rzdQuHaCMFrK3KZ3EVPJv14qRI03PA4hevC9MdwTU8t]--></g></svg>