<?xml version="1.0" encoding="us-ascii" standalone="no"?><svg xmlns="http://www.w3.org/2000/svg" xmlns:xlink="http://www.w3.org/1999/xlink" contentStyleType="text/css" height="118px" preserveAspectRatio="none" style="width:574px;height:118px;background:#FFFFFF;" version="1.1" viewBox="0 0 574 118" width="574px" zoomAndPan="magnify"><defs/><g><!--cluster System--><g id="cluster_System"><rect fill="none" height="105" rx="2.5" ry="2.5" style="stroke:#181818;stroke-width:1.0;" width="449" x="119" y="7"/><text fill="#000000" font-family="sans-serif" font-size="14" font-weight="bold" lengthAdjust="spacing" textLength="50" x="318.5" y="23.5332">System</text></g><g id="elem_UC1"><ellipse cx="208.0109" cy="61.0022" fill="#F1F1F1" rx="73.0109" ry="17.0022" style="stroke:#181818;stroke-width:0.5;"/><text fill="#000000" font-family="sans-serif" font-size="14" lengthAdjust="spacing" textLength="96" x="157.0109" y="65.5188">CRUD Branche</text></g><g id="elem_UC2"><ellipse cx="477.481" cy="60.7962" fill="#F1F1F1" rx="74.481" ry="17.2962" style="stroke:#181818;stroke-width:0.5;"/><text fill="#000000" font-family="sans-serif" font-size="14" lengthAdjust="spacing" textLength="100" x="424.481" y="65.3128">CRUD Question</text></g><!--entity fr--><g id="elem_fr"><ellipse cx="39" cy="30.5" fill="#F1F1F1" rx="8" ry="8" style="stroke:#181818;stroke-width:0.5;"/><path d="M39,38.5 L39,65.5 M26,46.5 L52,46.5 M39,65.5 L26,80.5 M39,65.5 L52,80.5 " fill="none" style="stroke:#181818;stroke-width:0.5;"/><text fill="#000000" font-family="sans-serif" font-size="14" lengthAdjust="spacing" textLength="66" x="6" y="96.5332">Formateur</text></g><!--link fr to UC1--><g id="link_fr_UC1"><path d="M72.2,61 C90.02,61 112.93,61 134.78,61 " fill="none" id="fr-UC1" style="stroke:#181818;stroke-width:1.0;"/></g><!--reverse link UC1 to UC2--><g id="link_UC1_UC2"><path d="M287.04,61 C324.79,61 364.96,61 402.94,61 " fill="none" id="UC1-backto-UC2" style="stroke:#181818;stroke-width:1.0;stroke-dasharray:7.0,7.0;"/><polygon fill="#181818" points="281.04,61,290.04,65,286.04,61,290.04,57,281.04,61" style="stroke:#181818;stroke-width:1.0;"/><text fill="#000000" font-family="sans-serif" font-size="13" lengthAdjust="spacing" textLength="60" x="312" y="57.4951">&#171;extends&#187;</text></g><!--SRC=[POr12i8m54JtESMGVGkwbD255VTMUe2G_hI1De6V7r34kskAEnUpcVU6MSaB9873l0YcmEGafAYiayJGryIR5IgiOJCygyfjd5V2_Pc5DhmKK38vcmcw7yOBpcoZMsXVZFtXZzyAvVhn4uxghJoZQNRv6vYshJrEC8OUGd7ANVS1]--></g></svg>